<?xml version="1.0" encoding="UTF-8"?> <svg xmlns="http://www.w3.org/2000/svg" id="Layer_1" data-name="Layer 1" viewBox="0 0 722.26 220.53"><title>logo-white</title><path d="M81.46,220.42c14.6,1.4,32.48,9.42,50.94,15.27,3.36,1.06,3.91,4.34,4.53,7.23,3.57,16.43,7.17,32.86,10.46,49.35a51.14,51.14,0,0,1,.61,12.31c-1.44,31.46-25.09,48.88-55.55,41.05-36.91-9.5-65.3-56-56.87-93.1C40.48,231,54.25,220.14,81.46,220.42ZM53.75,267.55c0,23.68,17.69,48.77,39.56,56.29,22.66,7.78,41.11-5.07,41.51-28.91.4-23.23-15.75-47.6-37.49-56.59C73.71,228.58,53.69,242,53.75,267.55Z" transform="translate(-34.09 -127.03)" style="fill:#fff"></path><path d="M132.8,225.75c-25.62-10.15-52-14.07-72.17-32.41C48.51,182.3,38.49,170,35,153.42c-3.75-17.9,8-30.09,25.72-25.37,31.89,8.49,54.12,28,63.58,60.26C127.75,200,129.77,212.16,132.8,225.75Zm-69-86.41c-11,0-16.08,6.24-14.29,17.51,3,18.85,29.94,42.86,49.1,43.77,10.73.5,17-6.16,15.68-16.67C111.77,164.19,83.54,139.24,63.76,139.34Z" transform="translate(-34.09 -127.03)" style="fill:#ec392f"></path><path d="M224.88,322.47c.24,9.74-.84,18.6-9.67,23.09-8.58,4.36-16.77.92-24.15-4.16-15.38-10.59-25.48-25.47-31.21-42.76-5.5-16.61-9.06-33.86-13.37-50.86-1.18-4.65-1.24-7.78,5.67-6.4,35.94,7.2,59.49,27.86,70,63.09C224,310.58,225.29,316.8,224.88,322.47Zm-9.2-7.5c.2-17.86-13.73-42.18-29-50.54-11.63-6.38-20.58-2-20.65,11.14-.13,22.09,9.36,39.86,27.69,52.09C206.12,335.9,215.51,330.05,215.68,315Z" transform="translate(-34.09 -127.03)" style="fill:#fff"></path><path d="M132.15,187.5c.23-13.91,5.31-18.05,15.18-16.14,19.43,3.77,46,37.26,45.67,57.48-.18,9.7-4.79,14.56-14.05,12.37-11.54-2.72-22.7-7.08-33.93-11a6.5,6.5,0,0,1-3.38-4.07C138.05,212.09,134.7,198,132.15,187.5Zm52.4,33.77c0-14.33-19.09-37.86-32.91-40.23-8.4-1.44-11.12,3.75-9.61,10.66,3.78,17.41,14.12,30.2,30.19,37.76C180,233.11,184.56,229.57,184.55,221.27Z" transform="translate(-34.09 -127.03)" style="fill:#fff"></path><path d="M233,252.46a21.29,21.29,0,0,1-7.55-1.32,18.37,18.37,0,0,1-6.07-3.7,17.32,17.32,0,0,1-4-5.56,16.77,16.77,0,0,1-1.43-7,15.35,15.35,0,0,1,1.75-7.25,16.64,16.64,0,0,1,4.9-5.65,24.27,24.27,0,0,1,7.5-3.65,33,33,0,0,1,9.57-1.32,40.76,40.76,0,0,1,7.29.64,29.84,29.84,0,0,1,6.33,1.79V216.3q0-5.49-3.13-8.46t-9.32-3a24.76,24.76,0,0,0-8.72,1.59,40.88,40.88,0,0,0-8.73,4.65l-4.36-9a41.39,41.39,0,0,1,23.2-7.08q12,0,18.67,5.87t6.65,17v17.23a5,5,0,0,0,.8,3.17,3.52,3.52,0,0,0,2.61,1.06V251.4a32.32,32.32,0,0,1-6.28.74,9.56,9.56,0,0,1-6.23-1.8,7.68,7.68,0,0,1-2.71-4.75l-.32-3.07a24.67,24.67,0,0,1-9,7.4A26.15,26.15,0,0,1,233,252.46Zm4-10.36a18.82,18.82,0,0,0,6.86-1.27,12.46,12.46,0,0,0,5-3.38,5.09,5.09,0,0,0,2.34-4v-6.35a35.59,35.59,0,0,0-5.53-1.53A30.61,30.61,0,0,0,240,225a15.36,15.36,0,0,0-9.05,2.48,7.47,7.47,0,0,0-3.51,6.3,7.54,7.54,0,0,0,2.77,6A10.1,10.1,0,0,0,237,242.1Z" transform="translate(-34.09 -127.03)" style="fill:#fff;stroke:#fff;stroke-miterlimit:10;stroke-width:2px"></path><path d="M299.89,252.46a43.42,43.42,0,0,1-13.73-2.22,33.49,33.49,0,0,1-11.49-6.35L280,235a45.73,45.73,0,0,0,9.95,5.45,26.92,26.92,0,0,0,9.63,1.85,12.19,12.19,0,0,0,6.7-1.59,5.1,5.1,0,0,0,2.45-4.54,4.55,4.55,0,0,0-2.87-4.34,63.51,63.51,0,0,0-9.37-3.17q-5.42-1.48-9.25-2.86a23.59,23.59,0,0,1-6.17-3.11,10.72,10.72,0,0,1-3.41-4,12.77,12.77,0,0,1-1.06-5.45,17.17,17.17,0,0,1,1.65-7.61,16.74,16.74,0,0,1,4.62-5.76,21.52,21.52,0,0,1,7-3.65,28.67,28.67,0,0,1,8.68-1.27,37.41,37.41,0,0,1,11.75,1.8,28.67,28.67,0,0,1,10.06,5.82l-5.75,8.56a33.71,33.71,0,0,0-8.24-4.65A22.63,22.63,0,0,0,298.4,205a11.54,11.54,0,0,0-6.07,1.48,5.14,5.14,0,0,0-2.44,4.76,4.6,4.6,0,0,0,.58,2.43,5.15,5.15,0,0,0,1.86,1.69,18.77,18.77,0,0,0,3.36,1.43c1.38.45,3.1.93,5.16,1.42q5.75,1.49,9.84,3a27,27,0,0,1,6.7,3.39,12,12,0,0,1,3.83,4.38,13.37,13.37,0,0,1,1.23,6,15.37,15.37,0,0,1-6.07,12.84Q310.32,252.46,299.89,252.46Z" transform="translate(-34.09 -127.03)" style="fill:#fff;stroke:#fff;stroke-miterlimit:10;stroke-width:2px"></path><path d="M365.11,252.46a22,22,0,0,1-11.49-2.91,20.7,20.7,0,0,1-7.66-7.88v32.25H331.7V196h12.45v9.52a22.79,22.79,0,0,1,8-7.67,22.36,22.36,0,0,1,11.28-2.8,24.08,24.08,0,0,1,10.43,2.27,25.73,25.73,0,0,1,8.24,6.14,28.33,28.33,0,0,1,5.43,9.09,31.17,31.17,0,0,1,2,11,34.91,34.91,0,0,1-1.81,11.31,29.12,29.12,0,0,1-5.05,9.2,23.72,23.72,0,0,1-7.72,6.13A21.69,21.69,0,0,1,365.11,252.46Zm-4.79-12.06a12.85,12.85,0,0,0,5.91-1.37,14.25,14.25,0,0,0,4.63-3.7,17.31,17.31,0,0,0,3-5.39,19.22,19.22,0,0,0,1.06-6.34,17.84,17.84,0,0,0-1.17-6.51,16.13,16.13,0,0,0-3.24-5.23,15.28,15.28,0,0,0-4.9-3.49,14.84,14.84,0,0,0-6.12-1.27,13.46,13.46,0,0,0-4.15.69,14.46,14.46,0,0,0-3.93,2,16.9,16.9,0,0,0-3.25,3,12.2,12.2,0,0,0-2.18,3.7v13a18.93,18.93,0,0,0,5.85,7.88A13.43,13.43,0,0,0,360.32,240.4Z" transform="translate(-34.09 -127.03)" style="fill:#fff;stroke:#fff;stroke-miterlimit:10;stroke-width:2px"></path><path d="M425,252.46a31.18,31.18,0,0,1-12.13-2.27,27.83,27.83,0,0,1-9.26-6.19,27.5,27.5,0,0,1-5.91-9.09A29.13,29.13,0,0,1,395.65,224a30.66,30.66,0,0,1,2-11.16,27.31,27.31,0,0,1,5.85-9.19,27.93,27.93,0,0,1,9.31-6.29,31.17,31.17,0,0,1,12.29-2.33,30.38,30.38,0,0,1,12.18,2.33,27.94,27.94,0,0,1,9.15,6.23,26.43,26.43,0,0,1,5.75,9.1,30.11,30.11,0,0,1,2,10.78c0,.92,0,1.8-.05,2.64a11.24,11.24,0,0,1-.27,2.12H410.76a16.32,16.32,0,0,0,1.59,5.81,14.39,14.39,0,0,0,3.3,4.34,14.21,14.21,0,0,0,4.58,2.74,15,15,0,0,0,5.32,1,16.48,16.48,0,0,0,8-2.07,10.88,10.88,0,0,0,5.16-5.44L451,238a24.86,24.86,0,0,1-9.84,10.42A30.71,30.71,0,0,1,425,252.46Zm14.47-33.41a14.71,14.71,0,0,0-4.63-10,14.59,14.59,0,0,0-19.74.05,14.57,14.57,0,0,0-3.14,4.33,15.32,15.32,0,0,0-1.44,5.61Z" transform="translate(-34.09 -127.03)" style="fill:#fff;stroke:#fff;stroke-miterlimit:10;stroke-width:2px"></path><path d="M459.38,223.7a30.08,30.08,0,0,1,2-11,26.71,26.71,0,0,1,5.86-9.1,28.6,28.6,0,0,1,9.25-6.23,30.81,30.81,0,0,1,12.24-2.33A29.55,29.55,0,0,1,504.34,199,25.09,25.09,0,0,1,514,209.22L500,213.44a12.56,12.56,0,0,0-4.79-4.7,13.51,13.51,0,0,0-6.6-1.64,13.65,13.65,0,0,0-5.74,1.22,14.08,14.08,0,0,0-4.63,3.38,15.86,15.86,0,0,0-3.09,5.23,19.82,19.82,0,0,0-1.11,6.77,18.65,18.65,0,0,0,1.17,6.77,16.89,16.89,0,0,0,3.14,5.28,13.77,13.77,0,0,0,4.62,3.44,13.46,13.46,0,0,0,5.64,1.21,13.74,13.74,0,0,0,7.08-1.9,10.76,10.76,0,0,0,4.52-4.65l13.94,4.23a23.35,23.35,0,0,1-9.47,10.36,29.89,29.89,0,0,1-15.85,4,30.81,30.81,0,0,1-12.24-2.33,28.17,28.17,0,0,1-9.26-6.29,27.85,27.85,0,0,1-5.9-9.2A29.27,29.27,0,0,1,459.38,223.7Z" transform="translate(-34.09 -127.03)" style="fill:#fff;stroke:#fff;stroke-miterlimit:10;stroke-width:2px"></path><path d="M544,252.46a43.36,43.36,0,0,1-13.72-2.22,33.49,33.49,0,0,1-11.49-6.35l5.32-8.88a45.44,45.44,0,0,0,9.94,5.45,26.92,26.92,0,0,0,9.63,1.85,12.25,12.25,0,0,0,6.71-1.59,5.09,5.09,0,0,0,2.44-4.54,4.54,4.54,0,0,0-2.87-4.34,63.29,63.29,0,0,0-9.36-3.17q-5.43-1.48-9.26-2.86a23.75,23.75,0,0,1-6.17-3.11,10.81,10.81,0,0,1-3.41-4,12.77,12.77,0,0,1-1.06-5.45,17.17,17.17,0,0,1,1.65-7.61,16.65,16.65,0,0,1,4.63-5.76,21.42,21.42,0,0,1,7-3.65,28.65,28.65,0,0,1,8.67-1.27,37.52,37.52,0,0,1,11.76,1.8,28.72,28.72,0,0,1,10,5.82l-5.74,8.56a33.75,33.75,0,0,0-8.25-4.65,22.59,22.59,0,0,0-7.93-1.48,11.48,11.48,0,0,0-6.06,1.48,5.15,5.15,0,0,0-2.45,4.76,4.6,4.6,0,0,0,.59,2.43,5.15,5.15,0,0,0,1.86,1.69,18.63,18.63,0,0,0,3.35,1.43c1.38.45,3.1.93,5.16,1.42q5.75,1.49,9.84,3a27,27,0,0,1,6.71,3.39,12.14,12.14,0,0,1,3.83,4.38,13.51,13.51,0,0,1,1.22,6,15.36,15.36,0,0,1-6.06,12.84Q554.4,252.46,544,252.46Z" transform="translate(-34.09 -127.03)" style="fill:#eb2127;stroke:#e92529;stroke-miterlimit:10;stroke-width:2px"></path><path d="M572.27,223.7a29.88,29.88,0,0,1,2-11,26.53,26.53,0,0,1,5.85-9.1,28.54,28.54,0,0,1,9.26-6.23,30.73,30.73,0,0,1,12.23-2.33A29.57,29.57,0,0,1,617.23,199a25.09,25.09,0,0,1,9.63,10.26l-13.94,4.22a12.63,12.63,0,0,0-4.79-4.7,13.49,13.49,0,0,0-6.6-1.64,13.65,13.65,0,0,0-5.74,1.22,14.19,14.19,0,0,0-4.63,3.38,15.86,15.86,0,0,0-3.09,5.23A19.82,19.82,0,0,0,587,223.7a18.87,18.87,0,0,0,1.17,6.77,16.89,16.89,0,0,0,3.14,5.28,13.71,13.71,0,0,0,4.63,3.44,13.38,13.38,0,0,0,5.63,1.21,13.71,13.71,0,0,0,7.08-1.9,10.76,10.76,0,0,0,4.52-4.65l13.94,4.23a23.3,23.3,0,0,1-9.47,10.36,29.89,29.89,0,0,1-15.85,4,30.81,30.81,0,0,1-12.24-2.33,28.17,28.17,0,0,1-9.26-6.29,27.85,27.85,0,0,1-5.9-9.2A29.47,29.47,0,0,1,572.27,223.7Z" transform="translate(-34.09 -127.03)" style="fill:#eb2127"></path><path d="M635.8,188.28V174.22h14.25v14.06Zm0,63.12V196h14.25v55.4Z" transform="translate(-34.09 -127.03)" style="fill:#eb2127"></path><path d="M696.13,208.27a28.18,28.18,0,0,0-11.6,2.48,14.58,14.58,0,0,0-7.35,7.14V251.4H662.93V196H676v11.84a25.35,25.35,0,0,1,3.52-5.12,26.63,26.63,0,0,1,4.36-4,20.3,20.3,0,0,1,4.73-2.59,13.15,13.15,0,0,1,4.63-.9H695a5.83,5.83,0,0,1,1.12.11Z" transform="translate(-34.09 -127.03)" style="fill:#eb2127"></path><path d="M727.2,252.46a31.18,31.18,0,0,1-12.13-2.27,27.32,27.32,0,0,1-15.17-15.28A29.13,29.13,0,0,1,697.83,224a30.66,30.66,0,0,1,2-11.16,27.31,27.31,0,0,1,5.85-9.19,27.93,27.93,0,0,1,9.31-6.29,31.2,31.2,0,0,1,12.29-2.33,30.38,30.38,0,0,1,12.18,2.33,28.09,28.09,0,0,1,9.16,6.23,26.55,26.55,0,0,1,5.74,9.1,30.11,30.11,0,0,1,2,10.78c0,.92,0,1.8-.05,2.64a11.24,11.24,0,0,1-.27,2.12H712.94a16.32,16.32,0,0,0,1.59,5.81,14.39,14.39,0,0,0,3.3,4.34,14.21,14.21,0,0,0,4.58,2.74,15,15,0,0,0,5.32,1,16.48,16.48,0,0,0,8-2.07,10.88,10.88,0,0,0,5.16-5.44L753.16,238a24.86,24.86,0,0,1-9.84,10.42A30.71,30.71,0,0,1,727.2,252.46Zm14.47-33.41a14.71,14.71,0,0,0-4.63-10,15,15,0,0,0-15.32-2.75,14,14,0,0,0-4.42,2.8,14.39,14.39,0,0,0-3.14,4.33,15.52,15.52,0,0,0-1.44,5.61Z" transform="translate(-34.09 -127.03)" style="fill:#eb2127"></path><path d="M737.2,190.85l-9.3-2.75,5.84-12.58h13.52Z" transform="translate(-34.09 -127.03)" style="fill:#eb2127"></path><path d="M330.65,314.81a7.82,7.82,0,0,0-.34,3.16,4.81,4.81,0,0,0,1.06,2.57,6.11,6.11,0,0,0,2.53,1.75,11,11,0,0,0,4,.65,14.25,14.25,0,0,0,6-1.23,9.34,9.34,0,0,0,4.14-3.49h3.73a17.78,17.78,0,0,1-2.42,2.72,15,15,0,0,1-3.14,2.18,17.08,17.08,0,0,1-4,1.45,22.15,22.15,0,0,1-4.95.51,16.83,16.83,0,0,1-5.7-.83,7.84,7.84,0,0,1-3.44-2.28,6,6,0,0,1-1.37-3.41,11.57,11.57,0,0,1,.5-4.22,13.23,13.23,0,0,1,2.17-4.24,15.68,15.68,0,0,1,3.65-3.47,17.75,17.75,0,0,1,4.83-2.34,19.18,19.18,0,0,1,5.82-.86c4,0,6.79,1,8.48,2.92s1.95,4.76.8,8.46Zm19.41-2a6.66,6.66,0,0,0,.25-2.83,4.49,4.49,0,0,0-1-2.3,5.68,5.68,0,0,0-2.39-1.55,11.08,11.08,0,0,0-3.79-.57,13.25,13.25,0,0,0-7.45,2.18,12,12,0,0,0-2.61,2.3,11.64,11.64,0,0,0-1.78,2.77Z" transform="translate(-34.09 -127.03)" style="fill:#fff"></path><path d="M357.79,324.53l8.5-28.55h3.34l-8.51,28.55Z" transform="translate(-34.09 -127.03)" style="fill:#fff"></path><path d="M375.25,314.81a7.82,7.82,0,0,0-.34,3.16,4.89,4.89,0,0,0,1.06,2.57,6.11,6.11,0,0,0,2.53,1.75,11,11,0,0,0,4,.65,14.25,14.25,0,0,0,6-1.23,9.42,9.42,0,0,0,4.15-3.49h3.72a17.27,17.27,0,0,1-2.42,2.72,14.72,14.72,0,0,1-3.14,2.18,17.16,17.16,0,0,1-4,1.45,22.28,22.28,0,0,1-4.95.51,16.75,16.75,0,0,1-5.7-.83,7.82,7.82,0,0,1-3.45-2.28,6,6,0,0,1-1.36-3.41,11.15,11.15,0,0,1,.5-4.22A13,13,0,0,1,374,310.1a15.88,15.88,0,0,1,3.65-3.47,17.82,17.82,0,0,1,4.84-2.34,19.07,19.07,0,0,1,5.81-.86c4,0,6.79,1,8.48,2.92s1.95,4.76.8,8.46Zm19.41-2a6.66,6.66,0,0,0,.25-2.83,4.41,4.41,0,0,0-1-2.3,5.68,5.68,0,0,0-2.39-1.55,11.06,11.06,0,0,0-3.78-.57,13.56,13.56,0,0,0-4.09.59,13.77,13.77,0,0,0-3.37,1.59,12,12,0,0,0-2.61,2.3,11.64,11.64,0,0,0-1.78,2.77Z" transform="translate(-34.09 -127.03)" style="fill:#fff"></path><path d="M405,304h3.61l4.12,17.6L427.25,304h3.61l-17.29,20.54h-3.73Z" transform="translate(-34.09 -127.03)" style="fill:#fff"></path><path d="M447.16,312.55c.63-.05,1.4-.13,2.3-.23a15.13,15.13,0,0,0,2.31-.44,2.11,2.11,0,0,0,1.31-.93,6.38,6.38,0,0,0,.53-1.21,3.35,3.35,0,0,0,.11-1.67,2.35,2.35,0,0,0-.86-1.31,5.36,5.36,0,0,0-1.95-.87,13.45,13.45,0,0,0-3.2-.31,16.54,16.54,0,0,0-6,1,6.76,6.76,0,0,0-3.79,3.64h-3.39a8.58,8.58,0,0,1,2.09-3.11,11.1,11.1,0,0,1,3.2-2.1,16.92,16.92,0,0,1,4-1.19,26.8,26.8,0,0,1,4.53-.38,22.2,22.2,0,0,1,4,.34,9,9,0,0,1,3,1.07,3.79,3.79,0,0,1,1.64,2,4.85,4.85,0,0,1-.06,3L453.61,321c-.3.92-.25,1.51.14,1.76s1.34.19,2.86-.18l-.56,1.87-1.19.24a8.42,8.42,0,0,1-1.53.15,9,9,0,0,1-1.45-.12c-1.07-.13-1.68-.49-1.83-1.09a4,4,0,0,1,.05-2,21.67,21.67,0,0,1-11.73,3.41,16.43,16.43,0,0,1-3.53-.36,7.48,7.48,0,0,1-2.75-1.11,4,4,0,0,1-1.56-1.84,3.82,3.82,0,0,1,0-2.59q1.5-5.24,11.9-6.19Zm5.28,1.19a26.54,26.54,0,0,1-4.53.84c-1.47.13-2.94.23-4.42.31a19.44,19.44,0,0,0-6.37,1.23,4.91,4.91,0,0,0-3.09,3.13,2.25,2.25,0,0,0,.06,1.65,2.7,2.7,0,0,0,1.08,1.15,5.59,5.59,0,0,0,1.81.67,10.58,10.58,0,0,0,2.22.22,22.15,22.15,0,0,0,4-.36,16.16,16.16,0,0,0,3.67-1.09,10.2,10.2,0,0,0,2.92-1.86,6,6,0,0,0,1.72-2.68Z" transform="translate(-34.09 -127.03)" style="fill:#fff"></path><path d="M472.07,324.61c-.41.05-1,.14-1.7.27a12.08,12.08,0,0,1-2.3.2,5.37,5.37,0,0,1-3.53-.89c-.69-.59-.81-1.66-.37-3.19l4.45-15h-4.06l.62-2h4.06l1.72-5.71h3.34L472.57,304H478l-.62,2H472l-4.17,14.08c-.15.5-.26.94-.34,1.3a1.37,1.37,0,0,0,.09.92,1.11,1.11,0,0,0,.72.51,5.72,5.72,0,0,0,1.59.16,10.54,10.54,0,0,0,1.36-.08c.46-.05.94-.12,1.42-.2Z" transform="translate(-34.09 -127.03)" style="fill:#fff"></path><path d="M483,314.81a7.82,7.82,0,0,0-.34,3.16,4.81,4.81,0,0,0,1.06,2.57,6.11,6.11,0,0,0,2.53,1.75,11,11,0,0,0,4,.65,14.25,14.25,0,0,0,6-1.23,9.34,9.34,0,0,0,4.14-3.49h3.73a17.27,17.27,0,0,1-2.42,2.72,14.72,14.72,0,0,1-3.14,2.18,17.08,17.08,0,0,1-4,1.45,22.15,22.15,0,0,1-4.95.51,16.83,16.83,0,0,1-5.7-.83A7.84,7.84,0,0,1,480.5,322a6.05,6.05,0,0,1-1.37-3.41,11.57,11.57,0,0,1,.5-4.22,13.23,13.23,0,0,1,2.17-4.24,15.68,15.68,0,0,1,3.65-3.47,17.9,17.9,0,0,1,4.83-2.34,19.18,19.18,0,0,1,5.82-.86c4,0,6.79,1,8.48,2.92s1.95,4.76.8,8.46Zm19.41-2a6.66,6.66,0,0,0,.25-2.83,4.49,4.49,0,0,0-1-2.3,5.68,5.68,0,0,0-2.39-1.55,11.08,11.08,0,0,0-3.79-.57,13.25,13.25,0,0,0-7.45,2.18,12,12,0,0,0-2.61,2.3,11.64,11.64,0,0,0-1.78,2.77Z" transform="translate(-34.09 -127.03)" style="fill:#fff"></path><path d="M540.42,296h3.34l-8.51,28.55h-3.34l1.06-3.61h-.11a10.19,10.19,0,0,1-2.39,1.8,17.08,17.08,0,0,1-2.9,1.29,20.47,20.47,0,0,1-3,.79,15.91,15.91,0,0,1-2.92.28,16.68,16.68,0,0,1-5.72-.83,7.27,7.27,0,0,1-3.34-2.28,6.19,6.19,0,0,1-1.25-3.43,11.7,11.7,0,0,1,.53-4.24,15.52,15.52,0,0,1,2-4.12,13.82,13.82,0,0,1,3.36-3.47,16.66,16.66,0,0,1,4.73-2.38,18.81,18.81,0,0,1,6-.9,15.44,15.44,0,0,1,5.59,1,6.32,6.32,0,0,1,3.53,2.87ZM535,314.18a8.32,8.32,0,0,0,.31-3.31,5.54,5.54,0,0,0-1.09-2.74,6.08,6.08,0,0,0-2.47-1.86,9.71,9.71,0,0,0-3.87-.69,14.26,14.26,0,0,0-4.72.73,12.81,12.81,0,0,0-3.73,2,11.56,11.56,0,0,0-4.17,6.58,7.16,7.16,0,0,0-.25,3.43,4.94,4.94,0,0,0,1.31,2.52,6.26,6.26,0,0,0,2.64,1.57,12.26,12.26,0,0,0,3.75.53,13.8,13.8,0,0,0,4.37-.67,13,13,0,0,0,3.61-1.85,11.14,11.14,0,0,0,2.67-2.77A12.69,12.69,0,0,0,535,314.18Z" transform="translate(-34.09 -127.03)" style="fill:#fff"></path><path d="M563.5,304h3.62l4.11,17.6L585.8,304h3.62l-17.3,20.54h-3.73Z" transform="translate(-34.09 -127.03)" style="fill:#fff"></path><path d="M589.42,324.53,595.53,304h3.34l-6.12,20.54Zm7.28-25,1.06-3.53h3.67l-1.06,3.53Z" transform="translate(-34.09 -127.03)" style="fill:#fff"></path><path d="M606.88,314.81a7.82,7.82,0,0,0-.34,3.16,4.89,4.89,0,0,0,1.06,2.57,6.11,6.11,0,0,0,2.53,1.75,11,11,0,0,0,4,.65,14.25,14.25,0,0,0,6-1.23,9.34,9.34,0,0,0,4.14-3.49H628a17.27,17.27,0,0,1-2.42,2.72,14.72,14.72,0,0,1-3.14,2.18,17.08,17.08,0,0,1-4,1.45,22.12,22.12,0,0,1-4.94.51,16.75,16.75,0,0,1-5.7-.83,7.82,7.82,0,0,1-3.45-2.28,6,6,0,0,1-1.36-3.41,11.15,11.15,0,0,1,.5-4.22,13,13,0,0,1,2.16-4.24,15.88,15.88,0,0,1,3.65-3.47,17.82,17.82,0,0,1,4.84-2.34,19.07,19.07,0,0,1,5.81-.86c4,0,6.79,1,8.48,2.92s2,4.76.8,8.46Zm19.41-2a6.66,6.66,0,0,0,.25-2.83,4.49,4.49,0,0,0-1-2.3,5.68,5.68,0,0,0-2.39-1.55,11.06,11.06,0,0,0-3.78-.57,13.25,13.25,0,0,0-7.46,2.18,12,12,0,0,0-2.61,2.3,11.64,11.64,0,0,0-1.78,2.77Z" transform="translate(-34.09 -127.03)" style="fill:#fff"></path><path d="M658.82,321.35,671.56,304H675l-15.46,20.54h-3.56l-1.17-17.25h-.11l-11.51,17.25h-4L636.47,304h3.33L642,321.51,653.93,304h3.72Z" transform="translate(-34.09 -127.03)" style="fill:#fff"></path><path d="M674.84,324.53,681,304h3.34l-6.12,20.54Zm7.28-25,1.06-3.53h3.67l-1.06,3.53Z" transform="translate(-34.09 -127.03)" style="fill:#fff"></path><path d="M690.69,324.53h-3.34L693.47,304h3.33l-.83,2.85a30.43,30.43,0,0,1,4.87-2.45,14.58,14.58,0,0,1,5.42-1,15.71,15.71,0,0,1,4.75.66,5.62,5.62,0,0,1,3.15,2.28,3.38,3.38,0,0,1,.58,2.28,13.75,13.75,0,0,1-.53,2.44l-4,13.44h-3.34l4-13.4q.82-2.78-.48-4.17t-5.31-1.38a12.76,12.76,0,0,0-3,.33,14.25,14.25,0,0,0-2.58.9,11.94,11.94,0,0,0-2.14,1.26,8,8,0,0,0-1.56,1.51,8.51,8.51,0,0,0-1.17,1.9,20.61,20.61,0,0,0-.72,2Z" transform="translate(-34.09 -127.03)" style="fill:#fff"></path><path d="M747.3,304h3.34l-5.51,18.55a17,17,0,0,1-1.75,3.95,11.51,11.51,0,0,1-3.09,3.31,15.58,15.58,0,0,1-4.81,2.28,24.66,24.66,0,0,1-7,.85,20.66,20.66,0,0,1-5.28-.57,10.37,10.37,0,0,1-3.31-1.45A4.47,4.47,0,0,1,718.3,329a3.27,3.27,0,0,1-.2-2h3.56a2.85,2.85,0,0,0,.62,1.89,4,4,0,0,0,1.63,1.15,9.36,9.36,0,0,0,2.37.57,23.14,23.14,0,0,0,2.84.16,17,17,0,0,0,5.69-.83,11.28,11.28,0,0,0,3.79-2.18,9.87,9.87,0,0,0,2.28-3.06,22.12,22.12,0,0,0,1.3-3.48,14.3,14.3,0,0,1-5.28,2.87,20.56,20.56,0,0,1-6.17,1,14.28,14.28,0,0,1-5.45-.89,7.72,7.72,0,0,1-3.31-2.38,6.66,6.66,0,0,1-1.34-3.47,10.28,10.28,0,0,1,.48-4.12,15.1,15.1,0,0,1,2-4.24,13.43,13.43,0,0,1,3.34-3.43,15.75,15.75,0,0,1,4.69-2.28,20.92,20.92,0,0,1,6.21-.84,14.18,14.18,0,0,1,2.75.28,13,13,0,0,1,2.56.8,8,8,0,0,1,2.11,1.3,5.11,5.11,0,0,1,1.36,1.79h.11Zm-3.06,10.35a8.94,8.94,0,0,0,.39-3.47,5.44,5.44,0,0,0-1-2.78,6,6,0,0,0-2.51-1.84,10.22,10.22,0,0,0-4-.67,15.12,15.12,0,0,0-4.06.53,13.39,13.39,0,0,0-3.58,1.57,11,11,0,0,0-2.84,2.52,10.38,10.38,0,0,0-1.81,3.42,10.24,10.24,0,0,0-.61,3.63,5.46,5.46,0,0,0,.92,3,5.79,5.79,0,0,0,2.53,2,10.69,10.69,0,0,0,4.28.73,13,13,0,0,0,4.28-.69,14.09,14.09,0,0,0,3.62-1.87,12.28,12.28,0,0,0,2.75-2.73A10.45,10.45,0,0,0,744.24,314.34Z" transform="translate(-34.09 -127.03)" style="fill:#fff"></path></svg> 